<?xml version="1.0" encoding="utf-8"?>
<!-- Generator: Adobe Illustrator 16.0.0, SVG Export Plug-In . SVG Version: 6.00 Build 0)  -->
<!DOCTYPE svg PUBLIC "-//W3C//DTD SVG 1.1//EN" "http://www.w3.org/Graphics/SVG/1.1/DTD/svg11.dtd">
<svg version="1.1" id="Layer_1" xmlns="http://www.w3.org/2000/svg" xmlns:xlink="http://www.w3.org/1999/xlink" x="0px" y="0px"
	 width="204.667px" height="84.667px" viewBox="0 0 204.667 84.667" enable-background="new 0 0 204.667 84.667"
	 xml:space="preserve">
<g>
	<g>
		<g>
			<g>
				<g>
					<path fill="#FFFFFF" d="M30.765,20.737c-5.641,0-10.072-5.521-16.52-5.521H3.367c4.432,4.6,3.224,13.805,12.894,13.805h10.071
						l4.433,19.788c0.403,1.84,4.833,1.38,5.642,3.682l3.624,23.93c-2.015,6.904,3.626,6.44,9.268,6.44
						c5.64,0,11.282,0.464,9.268-6.44l3.625-23.93c0.807-2.302,5.24-1.842,5.643-3.682l4.433-19.788h10.071
						c9.67,0,8.462-9.205,12.894-13.805H84.353c-6.446,0-10.879,5.521-16.519,5.521C76.295,16.595,22.304,16.595,30.765,20.737z"/>
					<path fill="#FFFFFF" d="M95.231,15.133H84.353c-3.352,0-6.154,1.479-8.863,2.909c-2.433,1.285-4.743,2.49-7.306,2.593
						c0.418-0.249,0.635-0.493,0.635-0.736c0-0.035-0.005-0.068-0.013-0.102c-0.36-1.553-10.057-2.249-19.511-2.249
						c-9.449,0-19.146,0.695-19.505,2.249c-0.008,0.034-0.012,0.066-0.012,0.102c0,0.243,0.217,0.487,0.634,0.736
						c-2.563-0.104-4.871-1.309-7.305-2.593c-2.709-1.43-5.511-2.909-8.863-2.909H3.174l0.133,0.139
						C4.8,16.823,5.664,18.938,6.5,20.982c1.629,3.992,3.316,8.122,9.76,8.122c0,0,9.876,0,10.005,0
						c0.029,0.126,4.419,19.722,4.419,19.722c0.203,0.926,1.346,1.288,2.557,1.675c1.317,0.42,2.678,0.852,3.085,2.016
						c0,0.01,3.567,23.539,3.621,23.897c-0.277,0.954-0.415,1.79-0.415,2.518c0,0.912,0.218,1.654,0.656,2.236
						c1.366,1.812,4.642,1.795,8.11,1.779l1-0.002l0.998,0.002c3.468,0.016,6.745,0.033,8.11-1.779
						c0.44-0.582,0.657-1.324,0.657-2.236c0-0.728-0.138-1.563-0.415-2.518c0.006-0.033,3.625-23.91,3.625-23.91
						c0.402-1.151,1.765-1.583,3.081-2.003c1.212-0.387,2.356-0.75,2.557-1.675c0,0,4.39-19.596,4.419-19.722
						c0.128,0,10.006,0,10.006,0c6.442,0,8.131-4.129,9.762-8.122c0.834-2.045,1.698-4.16,3.192-5.711l0.132-0.139H95.231z
						 M75.567,18.187c2.692-1.42,5.475-2.89,8.786-2.89c0,0,10.348,0,10.698,0c-1.438,1.559-2.286,3.623-3.104,5.625
						c-1.685,4.123-3.277,8.018-9.609,8.018H72.199L67.752,48.79c-0.182,0.834-1.281,1.185-2.447,1.556
						c-1.292,0.412-2.757,0.876-3.188,2.117c-0.005,0.015-3.631,23.944-3.631,23.944l-0.004,0.017l0.006,0.018
						c0.276,0.947,0.414,1.775,0.414,2.49c0,0.875-0.208,1.583-0.625,2.136c-1.317,1.748-4.553,1.733-7.979,1.715l-1-0.003l-1,0.003
						c-3.426,0.019-6.662,0.033-7.979-1.715c-0.757-1.002-0.826-2.516-0.21-4.626l0.005-0.018l-3.629-23.946
						c-0.438-1.256-1.903-1.72-3.195-2.132c-1.164-0.371-2.265-0.722-2.446-1.555c-0.001-0.001-4.448-19.852-4.448-19.852H16.261
						c-6.333,0-7.925-3.895-9.609-8.019c-0.818-2.001-1.667-4.065-3.105-5.624c0.35,0,10.698,0,10.698,0
						c3.312,0,6.094,1.47,8.786,2.89c2.565,1.354,4.987,2.633,7.734,2.633l0.036-0.156c-0.613-0.301-0.907-0.586-0.85-0.831
						c0.284-1.229,8.42-2.121,19.345-2.121c10.929,0,19.066,0.893,19.352,2.121c0.057,0.245-0.238,0.53-0.851,0.831l0.037,0.156
						C70.58,20.82,73.001,19.541,75.567,18.187z"/>
				</g>
				<path fill="#FFFFFF" d="M49.526,14.269c-7.349,0-15.159-1.994-15.159-5.688c0-3.696,7.811-5.69,15.159-5.69
					c7.349,0,15.16,1.994,15.16,5.69C64.686,12.275,56.875,14.269,49.526,14.269z M49.526,4.538c-8.372,0-13.512,2.354-13.512,4.042
					c0,1.688,5.14,4.041,13.512,4.041s13.512-2.354,13.512-4.041C63.039,6.892,57.898,4.538,49.526,4.538z"/>
			</g>
		</g>
	</g>
	<g>
		<path fill="#FFFFFF" d="M128.676,29.941h-7.898l-2.174,10.232h5.302l-1.22,5.885h-5.301l-3.605,16.965h-5.726l8.271-38.967h13.625
			L128.676,29.941z"/>
		<path fill="#FFFFFF" d="M132.279,24.057h5.727l-7.158,33.665h7.582l-1.113,5.302H124.01L132.279,24.057z"/>
		<path fill="#FFFFFF" d="M147.918,24.057h5.726l-7.157,33.665h7.581l-1.113,5.302h-13.307L147.918,24.057z"/>
		<path fill="#FFFFFF" d="M160.269,29.941l1.272-5.885h16.541l-1.272,5.885h-5.407l-6.998,33.082h-5.727l6.998-33.082H160.269z"/>
		<path fill="#FFFFFF" d="M181.525,63.023l1.538-24.493l0.106-1.644h-0.318l-5.514,26.137h-5.302l8.271-38.967h6.998l-0.424,17.813
			l-0.159,2.067h0.106l0.688-2.067l7.21-17.813h6.998l-8.27,38.967h-5.303l5.514-26.137h-0.318l-0.529,1.644l-8.854,24.493H181.525z
			"/>
	</g>
</g>
</svg>
