<?xml version="1.0" encoding="UTF-8"?>
<svg id="EXPANDIDO" xmlns="http://www.w3.org/2000/svg" baseProfile="tiny" version="1.2" viewBox="0 0 1164.2825 170.97402">
  <!-- Generator: Adobe Illustrator 29.6.1, SVG Export Plug-In . SVG Version: 2.1.1 Build 9)  -->
  <g>
    <path d="M364.87025,0h-169.87028v170h170V0h-.12972ZM199.29609,31.57696h64.9244v134.12452h-64.9244V31.57696ZM295.68433,165.70148V31.57696h65.01927v134.12452h-65.01927Z" fill="#fff"/>
    <path d="M.0207,0h-.0207v170h170V0H.0207ZM106.08266,100.74089h0c-.76646,1.02946-1.62961,1.97659-2.53364,2.88334-4.76857,4.78126-11.32266,7.77316-18.60705,7.77316s-13.83875-2.9919-18.60705-7.77316c-.90429-.90675-1.76718-1.85387-2.53364-2.88334h0c-3.27574-4.39843-5.23892-9.83366-5.23892-15.74089,0-4.43042,1.10423-8.59521,3.03807-12.25628.64488-1.22036,1.38173-2.38486,2.20059-3.4846.76672-1.02894,1.62961-1.97659,2.53391-2.88334,4.76857-4.78126,11.32266-7.77316,18.60705-7.77316,2.21317,0,4.34695.30627,6.39556.82493.05031.01259.1001.02622.15041.03933,4.63335,1.20253,8.7767,3.61597,12.06108,6.90889.90403.90675,1.76718,1.8544,2.53391,2.88334,3.27574,4.39843,5.23866,9.83366,5.23866,15.74089,0,4.43042-1.10449,8.59521-3.03833,12.25655-.64461,1.22036-1.38173,2.3846-2.20059,3.48434h0ZM111.22751,69.25911c-.52722-.87528-1.08379-1.73693-1.7022-2.5671-.81415-1.09292-1.74727-2.15752-2.93692-3.35061-3.86873-3.87871-8.71722-6.65612-14.02244-8.03328l-.18605-.04825c-2.49617-.63194-5.00204-.95342-7.43795-.95342-8.14781,0-15.83522,3.20849-21.64591,9.03442-1.18965,1.19309-2.12277,2.25769-2.93718,3.35061-.61867.8307-1.17524,1.69235-1.70246,2.56763h-27.17569V4.29852h106.92249v64.96059h-27.17569ZM31.48071,138.51062v-37.76974h27.17569c.52722.87528,1.08379,1.73693,1.70246,2.56763.81389,1.0924,1.74727,2.15752,2.93718,3.35061,5.81069,5.82594,13.49784,9.03442,21.64591,9.03442s15.83495-3.20849,21.64564-9.03442c1.19149-1.19466,2.1246-2.25926,2.93745-3.35113.61841-.83018,1.17524-1.69182,1.70246-2.5671h27.17569v64.96059H31.48071v-27.19085Z" fill="#fff"/>
    <path d="M390.02066.00001h-.0207v170h170V.00001h-169.9793ZM496.08262,100.7409h0c-.76646,1.02946-1.62961,1.97659-2.53364,2.88334-4.76857,4.78126-11.32266,7.77316-18.60705,7.77316s-13.83875-2.9919-18.60705-7.77316c-.90429-.90675-1.76718-1.85387-2.53364-2.88334h0c-3.27574-4.39843-5.23892-9.83366-5.23892-15.74089,0-4.43042,1.10423-8.59521,3.03807-12.25628.64488-1.22036,1.38173-2.38486,2.20059-3.4846.76672-1.02894,1.62961-1.97659,2.53391-2.88334,4.76857-4.78126,11.32266-7.77316,18.60705-7.77316,2.21317,0,4.34695.30627,6.39556.82493.05031.01259.1001.02622.15041.03933,4.63335,1.20253,8.7767,3.61597,12.06108,6.90889.90403.90675,1.76718,1.8544,2.53391,2.88334,3.27574,4.39843,5.23866,9.83366,5.23866,15.74089,0,4.43042-1.10449,8.59521-3.03833,12.25655-.64461,1.22036-1.38173,2.3846-2.20059,3.48434h0ZM501.22747,69.25913c-.52722-.87528-1.08379-1.73693-1.7022-2.5671-.81415-1.09292-1.74727-2.15752-2.93692-3.35061-3.86873-3.87871-8.71722-6.65612-14.02244-8.03328l-.18605-.04825c-2.49617-.63194-5.00204-.95342-7.43795-.95342-8.14781,0-15.83522,3.20849-21.64591,9.03442-1.18965,1.19309-2.12277,2.25769-2.93718,3.35061-.61867.8307-1.17524,1.69235-1.70246,2.56763h-27.17569V4.29854h106.92249v64.96059h-27.17569ZM421.48068,138.51064v-37.76974h27.17569c.52722.87528,1.08379,1.73693,1.70246,2.56763.81389,1.0924,1.74727,2.15752,2.93718,3.35061,5.81069,5.82594,13.49784,9.03442,21.64591,9.03442s15.83495-3.20849,21.64564-9.03442c1.19149-1.19466,2.1246-2.25926,2.93745-3.35113.61841-.83018,1.17524-1.69182,1.70246-2.5671h27.17569v64.96059h-106.92249v-27.19085Z" fill="#fff"/>
  </g>
  <rect x="634.99994" y=".00001" width="2" height="170" fill="#fff"/>
  <path d="M715.14041,167.99843l7.31592-66.45996,32.48584,69.43555c.12402,0,32.48584-69.43555,32.48584-69.43555l7.31592,66.45996h5.45557l-9.42334-85.55469-35.83398,76.50391-35.83398-76.50391-9.42334,85.55469h5.45557Z" fill="#fff"/>
  <polygon points="909.5701 163.03847 875.34793 163.03847 875.34793 125.22109 908.82596 125.22109 908.82596 120.26113 875.34793 120.26113 875.34793 90.25527 909.5701 90.25527 909.5701 85.29531 869.89237 85.29531 869.89237 167.99843 909.5701 167.99843 909.5701 163.03847" fill="#fff"/>
  <path d="M1021.54031,145.18398c0-9.17578-5.20801-13.51562-8.80371-15.99512-4.21582-2.97559-8.30762-4.71191-16.49121-8.67969-8.30762-4.0918-14.50684-7.06738-14.50684-15.99512,0-8.30762,5.57959-15.375,15.375-15.375,2.23193,0,11.15918.24805,16.24316,10.16797l3.96777-3.34863c-4.21582-7.81152-11.7793-11.7793-20.08691-11.7793-14.75488,0-21.20312,11.03613-21.20312,20.58301,0,3.22363.74414,6.32422,2.60449,9.42383,2.85156,4.71191,6.94336,6.94336,15.12695,10.91113,6.81934,3.34766,11.65527,5.82812,14.01074,7.19141,6.32422,3.84375,8.05957,8.55566,8.05957,13.01953,0,10.91113-8.80322,19.09473-19.96289,19.09473-5.70312,0-11.7793-2.35547-15.49902-7.06738-1.23975-1.48828-3.34766-4.71191-4.46338-7.93555l-4.71191,2.23145c.74414,2.1084,2.10791,5.33203,5.33154,9.05176,3.1001,3.5957,8.55566,8.67969,19.21924,8.67969,14.13525,0,25.79053-10.29199,25.79053-24.17871Z" fill="#fff"/>
  <path d="M1078.21024,167.99843h5.95215l11.03516-27.1543h35.21387l11.03564,27.1543h5.95166l-34.34619-85.18262-34.84229,85.18262ZM1097.18143,135.88417l15.74707-39.18164,15.49951,39.18164h-31.24658Z" fill="#fff"/>
  <polygon points="738.3577 37.59413 738.3577 2.00331 734.37528 2.00331 734.37528 16.36171 715.6282 16.36171 715.6282 2.00331 711.64578 2.00331 711.64578 37.59413 715.6282 37.59413 715.6282 20.14101 734.37528 20.14101 734.37528 37.59413 738.3577 37.59413" fill="#fff"/>
  <rect x="752.33133" y="2.00331" width="3.98242" height="35.59082" fill="#fff"/>
  <path d="M786.94266,5.32656c4.44873,0,7.62988,2.09863,9.13037,3.34863.44531.37109,1.98242,1.72266,3.05469,3.5293l.51367.86426,3.20703-2.56543-.47852-.67383c-1.26123-1.77441-2.52734-3.10352-4.23926-4.44824-2.32031-1.78516-5.68262-3.83398-11.13721-3.83398-10.56445,0-18.53125,7.87891-18.53125,18.32812,0,10.41895,7.90137,18.27637,18.37891,18.27637,5.60303,0,10.37012-2.13672,13.42334-6.0166,3.16406-4.02734,3.63623-9.02832,3.63623-11.65137v-.875h-15.95605v3.7793h11.89209c-.25439,1.95117-1.01611,4.12207-2.00781,5.64746-1.61133,2.46191-5.46924,5.33691-11.03857,5.33691-8.12061,0-14.24414-6.18945-14.24414-14.39648,0-8.21484,6.32373-14.64941,14.39648-14.64941Z" fill="#fff"/>
  <polygon points="816.04715 2.00331 816.04715 37.59413 820.02957 37.59413 820.02957 20.14101 838.77664 20.14101 838.77664 37.59413 842.75906 37.59413 842.75906 2.00331 838.77664 2.00331 838.77664 16.36171 820.02957 16.36171 820.02957 2.00331 816.04715 2.00331" fill="#fff"/>
  <polygon points="884.05008 37.59413 884.05008 5.78261 892.82742 5.78261 892.82742 2.00331 871.29031 2.00331 871.29031 5.78261 880.06766 5.78261 880.06766 37.59413 884.05008 37.59413" fill="#fff"/>
  <polygon points="902.94656 37.59413 920.93192 37.59413 920.93192 33.81484 906.92899 33.81484 906.92899 20.09023 920.62723 20.09023 920.62723 16.31093 906.92899 16.31093 906.92899 5.78261 920.93192 5.78261 920.93192 2.00331 902.94656 2.00331 902.94656 37.59413" fill="#fff"/>
  <path d="M949.63211,5.32656c4.11719,0,8.03564,1.8291,10.74951,5.01953l1.5415,1.81152v-5.69629l-.27197-.25879c-1.47217-1.40039-5.58447-4.65527-11.96826-4.65527-10.33447,0-18.42969,8.05078-18.42969,18.32812,0,10.24805,8.13965,18.27637,18.53125,18.27637,4.3999,0,8.60596-1.57324,11.84277-4.42969l.2959-.26172v-5.58203l-1.51953,1.65332c-4.12744,4.49219-9.24902,4.84082-10.7207,4.84082-5.95654,0-14.3457-4.4668-14.3457-14.39648,0-8.21484,6.2793-14.64941,14.29492-14.64941Z" fill="#fff"/>
  <polygon points="974.06961 2.00331 974.06961 37.59413 978.05203 37.59413 978.05203 20.14101 996.7991 20.14101 996.7991 37.59413 1000.78153 37.59413 1000.78153 2.00331 996.7991 2.00331 996.7991 16.36171 978.05203 16.36171 978.05203 2.00331 974.06961 2.00331" fill="#fff"/>
  <polygon points="1033.16922 37.59413 1037.15164 37.59413 1037.15164 20.14101 1055.89871 20.14101 1055.89871 37.59413 1059.88113 37.59413 1059.88113 2.00331 1055.89871 2.00331 1055.89871 16.36171 1037.15164 16.36171 1037.15164 2.00331 1033.16922 2.00331 1033.16922 37.59413" fill="#fff"/>
  <rect x="1073.85477" y="2.00331" width="3.98242" height="35.59082" fill="#fff"/>
  <path d="M1108.4661,5.32656c4.44873,0,7.62988,2.09863,9.13037,3.34863.44531.37109,1.98242,1.72266,3.05469,3.5293l.51367.86426,3.20703-2.56543-.47852-.67383c-1.26123-1.77441-2.52734-3.10352-4.23926-4.44824-2.32031-1.78516-5.68262-3.83398-11.13721-3.83398-10.56445,0-18.53125,7.87891-18.53125,18.32812,0,10.41895,7.90137,18.27637,18.37891,18.27637,5.60303,0,10.37012-2.13672,13.42334-6.0166,3.16406-4.02734,3.63623-9.02832,3.63623-11.65137v-.875h-15.95605v3.7793h11.89209c-.25439,1.95117-1.01611,4.12207-2.00781,5.64746-1.61133,2.46191-5.46924,5.33691-11.03857,5.33691-8.12061,0-14.24414-6.18945-14.24414-14.39648,0-8.21484,6.32373-14.64941,14.39648-14.64941Z" fill="#fff"/>
  <polygon points="1137.57059 37.59413 1141.55301 37.59413 1141.55301 20.14101 1160.30008 20.14101 1160.30008 37.59413 1164.2825 37.59413 1164.2825 2.00331 1160.30008 2.00331 1160.30008 16.36171 1141.55301 16.36171 1141.55301 2.00331 1137.57059 2.00331 1137.57059 37.59413" fill="#fff"/>
</svg>