<?xml version="1.0" encoding="utf-8"?>
<!-- Generator: Adobe Illustrator 16.0.0, SVG Export Plug-In . SVG Version: 6.00 Build 0)  -->
<!DOCTYPE svg PUBLIC "-//W3C//DTD SVG 1.1//EN" "http://www.w3.org/Graphics/SVG/1.1/DTD/svg11.dtd">
<svg version="1.1" id="Layer_1" xmlns="http://www.w3.org/2000/svg" xmlns:xlink="http://www.w3.org/1999/xlink" x="0px" y="0px"
	 width="147.333px" height="46px" viewBox="0 0 147.333 46" enable-background="new 0 0 147.333 46" xml:space="preserve">
<g>
	<defs>
		<rect id="SVGID_1_" x="1.333" width="146" height="46"/>
	</defs>
	<clipPath id="SVGID_2_">
		<use xlink:href="#SVGID_1_"  overflow="visible"/>
	</clipPath>
	<polyline clip-path="url(#SVGID_2_)" fill="#FFFFFF" points="80.163,17.24 83.419,17.24 83.419,26.935 89.247,26.935 
		89.247,29.736 80.163,29.736 80.163,17.24 	"/>
	<polyline clip-path="url(#SVGID_2_)" fill="#FFFFFF" points="89.807,17.24 99.766,17.24 99.766,19.848 93.062,19.848 
		93.062,22.035 99.188,22.035 99.188,24.555 93.062,24.555 93.062,26.935 99.941,26.935 99.941,29.736 89.807,29.736 89.807,17.24 	
		"/>
	<path clip-path="url(#SVGID_2_)" fill="#FFFFFF" d="M112.279,29.736h-2.101l-0.191-1.365c-0.858,1.207-2.328,1.627-3.483,1.627
		c-3.781,0-6.23-2.887-6.23-6.51s2.449-6.512,6.23-6.512c2.59,0,5.355,1.383,5.653,4.516h-3.256
		c-0.105-1.066-1.155-1.715-2.468-1.715c-2.1,0-2.905,1.856-2.905,3.711s0.806,3.709,2.905,3.709c1.61,0,2.695-0.752,2.87-1.889
		h-2.274v-2.417h5.25V29.736"/>
	<path clip-path="url(#SVGID_2_)" fill="#FFFFFF" d="M119,16.976c3.938,0,6.161,2.889,6.161,6.512s-2.223,6.51-6.161,6.51
		s-6.161-2.887-6.161-6.51S115.062,16.976,119,16.976 M119,27.197c2.1,0,2.905-1.854,2.905-3.709S121.1,19.777,119,19.777
		s-2.905,1.856-2.905,3.711S116.9,27.197,119,27.197z"/>
	<polyline clip-path="url(#SVGID_2_)" fill="#FFFFFF" points="80.513,33.242 83.769,33.242 83.769,42.937 89.597,42.937 
		89.597,45.738 80.513,45.738 80.513,33.242 	"/>
	<polyline clip-path="url(#SVGID_2_)" fill="#FFFFFF" points="90.157,33.242 100.115,33.242 100.115,35.85 93.412,35.85 
		93.412,38.037 99.538,38.037 99.538,40.557 93.412,40.557 93.412,42.937 100.29,42.937 100.29,45.738 90.157,45.738 90.157,33.242 
			"/>
	<path clip-path="url(#SVGID_2_)" fill="#FFFFFF" d="M104.491,33.242h3.307l4.673,12.496h-3.395l-0.771-2.24h-4.357l-0.787,2.24
		h-3.344L104.491,33.242 M104.701,41.082h2.835l-1.383-4.375h-0.035L104.701,41.082z"/>
	<path clip-path="url(#SVGID_2_)" fill="#FFFFFF" d="M123.9,45.738H121.8l-0.192-1.365C120.75,45.58,119.279,46,118.125,46
		c-3.781,0-6.231-2.887-6.231-6.51s2.45-6.513,6.231-6.513c2.589,0,5.355,1.384,5.652,4.517h-3.255
		c-0.105-1.066-1.155-1.715-2.469-1.715c-2.1,0-2.904,1.855-2.904,3.711s0.805,3.709,2.904,3.709c1.611,0,2.696-0.752,2.871-1.889
		h-2.275v-2.416h5.251V45.738"/>
	<path clip-path="url(#SVGID_2_)" fill="#FFFFFF" d="M135.731,40.574c0,3.623-1.663,5.426-5.443,5.426s-5.443-1.803-5.443-5.426
		v-7.332h3.256v7.524c0,1.61,0.595,2.433,2.188,2.433s2.188-0.822,2.188-2.433v-7.524h3.256V40.574"/>
	<polyline clip-path="url(#SVGID_2_)" fill="#FFFFFF" points="136.851,33.242 146.81,33.242 146.81,35.85 140.107,35.85 
		140.107,38.037 146.232,38.037 146.232,40.557 140.107,40.557 140.107,42.937 146.985,42.937 146.985,45.738 136.851,45.738 
		136.851,33.242 	"/>
	<path clip-path="url(#SVGID_2_)" fill="#9A989A" d="M37.072,15.084c1.307,0,2.577,0.12,3.79,0.341l2.883-3.006
		c-2.016-0.697-4.281-1.089-6.673-1.089c-4.069,0-7.763,1.134-10.502,2.981l2.513,2.381C31.407,15.673,34.141,15.084,37.072,15.084"
		/>
	<path clip-path="url(#SVGID_2_)" fill="#FFFFFF" d="M37.072,11.33c2.392,0,4.657,0.392,6.673,1.089l3.136-3.263
		c-2.926-1.154-6.263-1.809-9.809-1.809c-5.286,0-10.11,1.455-13.791,3.849l3.289,3.115C29.309,12.464,33.003,11.33,37.072,11.33"/>
	<path clip-path="url(#SVGID_2_)" fill="#9A989A" d="M22.016,24.101c0.264-1.076,0.751-2.099,1.422-3.042l-1.263-1.277
		c-0.25,0.785-0.389,1.603-0.389,2.445C21.786,22.865,21.866,23.492,22.016,24.101"/>
</g>
<g>
	<defs>
		<rect id="SVGID_3_" x="1.393" y="0.471" width="145.592" height="45.529"/>
	</defs>
	<clipPath id="SVGID_4_">
		<use xlink:href="#SVGID_3_"  overflow="visible"/>
	</clipPath>
	<g clip-path="url(#SVGID_4_)">
		<defs>
			<rect id="SVGID_5_" x="1.333" width="146" height="46"/>
		</defs>
		<clipPath id="SVGID_6_">
			<use xlink:href="#SVGID_5_"  overflow="visible"/>
		</clipPath>
		<path clip-path="url(#SVGID_6_)" fill="#9A989A" d="M12.683,31.166l-0.531,2.748l5.277-2.272
			c-0.333-0.699-0.399-1.612-0.591-2.354L12.683,31.166"/>
		<polyline clip-path="url(#SVGID_6_)" fill="#9A989A" points="8.97,1.268 1.333,43.085 4.945,43.379 12.506,0.954 8.97,1.268 		"/>
	</g>
</g>
<g>
	<defs>
		<rect id="SVGID_7_" x="1.333" width="146" height="46"/>
	</defs>
	<clipPath id="SVGID_8_">
		<use xlink:href="#SVGID_7_"  overflow="visible"/>
	</clipPath>
	<path clip-path="url(#SVGID_8_)" fill="#ED1C24" d="M34.649,25.331V21.95l-8.059-7.639l-3.289-3.115L12.494,0.953L4.93,43.379
		l16.005-7.035c-1.594-1.408-2.723-2.909-3.562-4.678l-5.21,2.236l0.523-2.735l3.376-17.597l0.281-1.476l6.375,6.419l1.539,1.551
		l6.331,5.453l-6.145,2.818c1.596,1.595,3.487,2.998,6.035,3.792l7.667-3.443L34.649,25.331"/>
	<path clip-path="url(#SVGID_8_)" fill="#9A989A" d="M52.126,24.101c0.149-0.608,0.231-1.235,0.231-1.875
		c0-1.89-0.69-3.672-1.879-5.221l-1.82,1.886C50.406,20.346,51.648,22.137,52.126,24.101"/>
	<path clip-path="url(#SVGID_8_)" fill="#9A989A" d="M55.549,42l-4.315-4.145c-0.69,0.472-1.427,0.908-2.199,1.31l6.514,6.254
		l20.086-20.921l-0.021-3.389L55.549,42"/>
	<path clip-path="url(#SVGID_8_)" fill="#9A989A" d="M40.912,27.949l-3.554-3.412L34.64,21.94l-0.01,3.391l7.476,7.182
		c0.929-0.23,1.817-0.523,2.652-0.871L40.912,27.949"/>
	<polyline clip-path="url(#SVGID_8_)" fill="#9A989A" points="54.878,9.029 52.019,12.006 48.865,15.292 42.64,21.774 
		44.347,23.413 54.878,12.446 65.923,23.034 67.632,21.261 54.878,9.029 	"/>
	<path clip-path="url(#SVGID_8_)" fill="#FFFFFF" d="M53.816,13.553l-3.321,3.458c1.188,1.548,1.862,3.325,1.862,5.215
		c0,0.639-0.082,1.266-0.231,1.875c-0.387,1.591-1.258,3.062-2.501,4.336c-1.272,1.306-2.934,2.402-4.867,3.205
		c-0.835,0.348-1.723,0.641-2.652,0.871c-1.575,0.391-3.27,0.607-5.034,0.607c-2.174,0-4.239-0.324-6.11-0.907
		c-2.549-0.794-4.736-2.07-6.333-3.664c-0.583-0.581-1.086-1.206-1.502-1.865c-0.511-0.813-0.89-1.678-1.111-2.583
		c-0.15-0.608-0.23-1.235-0.23-1.875c0-0.842,0.139-1.66,0.389-2.445l-3.814-3.861c-1.397,2.07-2.185,4.404-2.185,6.877
		c0,0.636,0.059,1.262,0.159,1.877c0.245,1.494,0.781,2.921,1.561,4.252c0.39,0.669,0.844,1.312,1.355,1.928
		c1.342,1.62,3.072,3.04,5.1,4.193c3.522,2.004,7.931,3.199,12.721,3.199c3.351,0,6.514-0.584,9.32-1.62
		c0.852-0.315,1.669-0.671,2.45-1.066c1.808-0.915,3.413-2.032,4.753-3.312c2.247-2.147,3.748-4.741,4.213-7.574
		c0.101-0.615,0.158-1.241,0.158-1.877C57.966,19.33,56.423,16.13,53.816,13.553"/>
	<path clip-path="url(#SVGID_8_)" fill="#0066B3" d="M40.894,27.975l3.834,3.682c1.93-0.806,3.605-1.89,4.879-3.193l-6.962-6.686
		l4.052-4.22L52,12.031l2.861-2.977L67.584,21.27L55.453,33.903c-1.099,1.504-2.522,2.839-4.206,3.99l4.283,4.134l20.087-20.92
		L54.697,1.022L40.841,15.451L34.64,21.94L40.894,27.975"/>
	<path clip-path="url(#SVGID_8_)" fill="#9A989A" d="M23.214,26.786c0,0,0.1,0.165,0.112,0.185c0.306,0.487,0.728,0.934,1.127,1.38
		l6.249-2.889L16.341,12.088l-0.391,2.069l11.266,11.154L23.214,26.786"/>
	<path clip-path="url(#SVGID_8_)" fill="#9A989A" d="M57.966,22.797c0,0.636-0.057,1.262-0.158,1.877
		c-0.465,2.833-1.966,5.427-4.213,7.574c-1.34,1.279-2.945,2.396-4.753,3.312c-0.781,0.396-1.598,0.751-2.45,1.066
		c-2.806,1.036-5.969,1.62-9.32,1.62c-4.79,0-9.199-1.195-12.721-3.199c-2.028-1.153-3.758-2.573-5.1-4.193
		c-0.511-0.615-0.965-1.259-1.355-1.928c-0.78-1.331-1.316-2.758-1.561-4.252c-0.1-0.615-0.159-1.241-0.159-1.877
		c0-0.2,0.015-0.399,0.025-0.595c-0.002-0.011-0.006-0.025-0.007-0.035c-0.102,0.615-0.018,3.749-0.018,4.386
		c0,1.006,0.135,1.991,0.384,2.944c0.194,0.745,0.461,1.469,0.794,2.169c0.838,1.769,2.097,3.391,3.691,4.799
		C24.88,39.848,30.636,42,37.072,42c4.466,0,8.6-1.039,11.997-2.803c0.771-0.4,1.505-0.839,2.194-1.31
		c1.684-1.153,3.11-2.506,4.208-4.011c1.591-2.178,2.495-4.673,2.495-7.324c0-0.56,0.049-3.21-0.005-4.264
		C57.951,22.145,57.966,22.614,57.966,22.797"/>
	<path clip-path="url(#SVGID_8_)" fill="#FFFFFF" d="M125.935,17.833c0.615,0,1.115,0.497,1.115,1.114
		c0,0.62-0.496,1.116-1.115,1.116c-0.627,0-1.114-0.487-1.114-1.116C124.82,18.327,125.313,17.833,125.935,17.833 M125.935,19.925
		c0.543,0,0.977-0.435,0.977-0.973c0-0.544-0.434-0.98-0.977-0.98c-0.54,0-0.976,0.436-0.976,0.975
		C124.959,19.494,125.39,19.925,125.935,19.925z M125.502,18.376c0.056-0.004,0.064-0.006,0.176-0.015
		c0.114-0.009,0.161-0.014,0.207-0.014c0.367,0,0.548,0.143,0.548,0.414c0,0.164-0.068,0.262-0.215,0.319l-0.018,0.005
		c0.012,0.008,0.018,0.012,0.021,0.022c0.038,0.033,0.167,0.226,0.275,0.404h-0.418c-0.085-0.159-0.111-0.203-0.219-0.383v0.383
		h-0.358V18.376z M125.903,18.912c0.099,0,0.153-0.047,0.153-0.137c0-0.087-0.05-0.135-0.15-0.135c-0.021,0-0.025,0-0.046,0.004
		v0.264C125.876,18.912,125.885,18.912,125.903,18.912z"/>
	<polyline clip-path="url(#SVGID_8_)" fill="#FFFFFF" points="83.175,0.721 92.023,0.721 91.19,4.129 86.949,4.129 86.53,5.919 
		90.954,5.919 90.184,9.076 85.817,9.076 84.769,13.561 80.198,13.561 83.175,0.721 	"/>
	<polyline clip-path="url(#SVGID_8_)" fill="#FFFFFF" points="93.226,0.721 97.797,0.721 94.82,13.561 90.249,13.561 93.226,0.721 	
		"/>
	<path clip-path="url(#SVGID_8_)" fill="#FFFFFF" d="M98.993,0.798l0.294-0.038c1.467-0.174,3.291-0.289,4.298-0.289
		c1.677,0,2.977,0.193,3.963,0.597c1.258,0.519,2.013,1.655,2.013,3.022c0,1.174-0.398,2.291-1.153,3.157
		c-0.65,0.75-1.237,1.116-2.453,1.482l-0.293,0.096c0.125,0.097,0.167,0.135,0.229,0.193c0.357,0.404,1.427,2.483,2.328,4.543
		h-5.033c-0.648-1.829-0.838-2.31-1.697-4.389l-1.006,4.389h-4.445L98.993,0.798 M102.369,6.843c1.467,0,2.495-0.867,2.495-2.098
		c0-0.655-0.482-0.982-1.426-0.982c-0.273,0-0.42,0.019-0.714,0.077l-0.691,2.964C102.18,6.823,102.201,6.843,102.369,6.843z"/>
	<polyline clip-path="url(#SVGID_8_)" fill="#FFFFFF" points="120.412,0.721 131.502,0.721 130.727,4.438 127.436,4.438 
		125.255,13.561 120.684,13.561 122.865,4.438 119.297,4.438 120.412,0.721 	"/>
	<path clip-path="url(#SVGID_8_)" fill="#FFFFFF" d="M127.394,11.267c0.617,0,1.117,0.496,1.117,1.112
		c0,0.62-0.496,1.116-1.117,1.116c-0.625,0-1.111-0.487-1.111-1.116C126.282,11.758,126.774,11.267,127.394,11.267 M127.394,13.357
		c0.543,0,0.979-0.435,0.979-0.974c0-0.543-0.437-0.978-0.979-0.978c-0.537,0-0.974,0.435-0.974,0.974
		C126.42,12.926,126.851,13.357,127.394,13.357z M126.963,11.81c0.057-0.004,0.065-0.009,0.177-0.017
		c0.112-0.009,0.159-0.013,0.207-0.013c0.366,0,0.547,0.142,0.547,0.413c0,0.164-0.068,0.263-0.215,0.319l-0.017,0.005
		c0.012,0.008,0.017,0.013,0.021,0.021c0.039,0.035,0.168,0.229,0.276,0.405h-0.418c-0.086-0.159-0.112-0.202-0.22-0.383v0.383
		h-0.358V11.81z M127.364,12.344c0.099,0,0.154-0.047,0.154-0.138c0-0.086-0.051-0.133-0.15-0.133c-0.021,0-0.025,0-0.047,0.004
		v0.263C127.338,12.344,127.347,12.344,127.364,12.344z"/>
	<path clip-path="url(#SVGID_8_)" fill="#FFFFFF" d="M108.669,13.234c1.285,0.382,2.69,0.596,4.003,0.596
		c1.782,0,3.146-0.404,4.319-1.251c1.3-0.924,2.139-2.348,2.139-3.638c0-0.866-0.377-1.656-1.048-2.214
		c-0.525-0.423-1.07-0.751-2.181-1.27l-0.902-0.424c-0.293-0.154-0.44-0.308-0.44-0.481c0-0.462,0.588-0.808,1.385-0.808
		c0.596,0,1.306,0.173,2.664,0.617l0.937-3.476c-1.016-0.276-2.005-0.414-2.993-0.414c-3.731,0-6.604,2.04-6.604,4.678
		c0,1.386,0.923,2.367,3.229,3.445c1.09,0.501,1.279,0.636,1.279,0.982c0,0.52-0.566,0.847-1.489,0.847
		c-0.816,0-1.866-0.25-3.292-0.77l-0.001,0.001L108.669,13.234"/>
</g>
</svg>
