<?xml version="1.0" encoding="UTF-8"?>
<svg id="Layer_1" data-name="Layer 1" xmlns="http://www.w3.org/2000/svg" viewBox="0 0 285.49 288" width="371.137" height="374.4">
  <polygon fill="#FFFFFF" points="204.6 45.8 204.08 39.83 200.75 45.8 204.6 45.8"/>
  <polygon fill="#FFFFFF" points="185.19 39.83 181.87 45.8 185.71 45.8 185.19 39.83"/>
  <path fill="#FFFFFF" d="M219.81,228.75c16.42-25.3,25.42-54.51,26.15-84.71l39.52-68.45h-36.04l-3.43,5.95V22.42h-.63C192.11,22.42,152.34.4,151.95.18l-.31-.18-.31.18c-.4.22-40.15,22.24-93.43,22.24h-.63v117.59c0,6.87.43,13.69,1.27,20.43l-40.49-.04L0,191.6l65.61.06c4.33,13,10.31,25.46,17.86,37.09,1.77,2.73,3.62,5.39,5.54,8-2.51-.22-4.95-.45-7.3-.69-13.43-1.41-20.62-2.93-23.63-3.68v26.19c.01.11.04.22.02.34,0,.02-.01.03-.02.05v11.31c5.24,1.01,30.2,5.43,73.32,6.55,6.37,4.15,13.04,7.87,19.98,11.13l.14.06h.28l.13-.06c6.94-3.25,13.6-6.97,19.97-11.12,43.26-1.11,68.31-5.54,73.56-6.55v-37.9c-3.54.9-12.82,2.86-31.19,4.41,1.93-2.62,3.78-5.29,5.56-8.03ZM145.06,41.18l-.87,3.7h-6.54l-.98,4.16h8.27l-.84,3.7h-13.07l4.4-18.9h13.07l-.87,3.71h-8.27l-.84,3.63h6.53ZM107.73,41.18l-.87,3.7h-6.54l-.98,4.16h8.27l-.84,3.7h-13.07l4.4-18.9h13.07l-.87,3.71h-8.27l-.84,3.63h6.54ZM83.9,49.27h.49c.58,0,1.19-.03,1.88-.14l1.39-5.94h4.8l-2.14,9.1c-2.05.5-4.19.71-6.56.71h-.47c-6.13,0-8.64-1.78-7.29-7.33l1.1-4.79c1.27-5.52,4.48-7.33,10.21-7.33h.49c2.95,0,4.51.24,6.74.63l-1.79,3.65c-1.27-.26-2.95-.55-4.8-.55h-.49c-4.11,0-4.77,1.1-5.38,3.6l-1.1,4.79c-.6,2.49-.49,3.6,2.92,3.6ZM114.43,33.84h4.74l4.71,11.65,2.72-11.65h4.77l-4.39,18.9h-4.77l-4.77-11.41-2.66,11.41h-4.74l4.39-18.9ZM168.39,41.28l1.74-7.44h4.83l-4.4,18.9h-4.83l1.79-7.73h-6.5l-1.79,7.73h-4.8l4.4-18.9h4.8l-1.73,7.44h6.5ZM226.84,47.83c-1.1,4.5-4.74,5.18-8.64,5.18-2.72,0-5.26-.44-6.85-.79l1.48-3.73c1.62.37,3.9.76,5.64.76,1.94,0,3.15-.5,3.44-1.81.84-3.7-8.3-1.76-6.71-8.86,1.1-4.41,5.55-5.02,8.36-5.02,3.26,0,4.63.39,5.95.79l-1.64,3.62c-1.19-.34-2.6-.68-4.28-.68-1.88,0-3.13.47-3.41,1.71-.81,3.47,8.33,1.58,6.68,8.83ZM210.24,52.74h-5l-.29-3.23h-6.28l-1.79,3.23h-5.24l11.57-18.9h4.13l2.89,18.9ZM188.46,33.84l2.89,18.9h-5l-.29-3.23h-6.27l-1.79,3.23h-5.24l11.57-18.9h4.14ZM90.69,252.86c-2.68-.32-5.36-.66-8.06-1.03-.15,1.12-.3,2.19-.44,3.29,2.3.31,4.59.61,6.89.89-.09.74-.17,1.44-.27,2.18-2.3-.28-4.6-.58-6.92-.89-.24,1.73-.47,3.43-.7,5.15-1.11-.15-2.18-.3-3.28-.46.62-4.33,1.23-8.66,1.85-12.98,3.73.53,7.47,1.02,11.23,1.47-.09.78-.19,1.56-.29,2.38ZM106.16,257.11c-.02.51-.08,1.01-.13,1.52,0,0-.1,1.48-.28,2.19-.5,1.87-1.78,3.03-3.65,3.6-1.35.41-2.74.41-4.13.21-1.22-.18-2.37-.54-3.39-1.23-1.63-1.1-2.45-2.61-2.35-4.53.06-1.18.17-2.37.43-3.51.41-1.87,1.64-3.1,3.45-3.74,1.41-.5,2.85-.49,4.31-.29.28.04.55.09.82.15,1.08.24,2.09.66,2.98,1.38,1.2.96,1.84,2.19,1.93,3.65.02.19.02.39.01.6ZM114.65,266.09c-1.2-.14-2.35-.45-3.4-1.06-1.52-.89-2.4-2.18-2.55-3.91-.02-.22-.03-.44-.01-.66.04-.46.08-.93.11-1.39.05-.57.09-1.14.14-1.71.13-1.62.27-3.24.4-4.85,0-.05.01-.1.02-.16,1.06.08,2.11.17,3.2.25,0,.1-.01.19-.02.29-.19,2.43-.38,4.87-.56,7.3,0,.11-.02.21-.03.31,0,.05,0,.09,0,.14,0,.06,0,.11,0,.17,0,.17.01.35.05.51,0,0,0,.02,0,.03.01.08.03.15.05.22.03.09.06.18.09.26.03.08.07.16.12.24.04.08.09.16.15.23.05.07.1.13.16.2.07.08.14.15.22.23.1.09.2.17.31.25.01,0,.02.02.03.03.08.05.17.11.26.15.02,0,.03.02.05.03.04.03.08.05.13.06.07.03.14.07.22.09.08.03.15.06.23.08.11.03.21.06.32.09.26.06.51.11.77.14.1.01.19.03.29.03.02,0,.05,0,.06,0,.17.01.33.02.5.01,0,0,0,0,0,0,.41,0,.83-.05,1.24-.16,1.25-.33,1.91-1.19,2-2.6.16-2.51.32-5.02.48-7.52,0-.1,0-.19.02-.3,1.08.07,2.11.13,3.17.19,0,.09,0,.17-.01.25-.14,2.47-.27,4.95-.42,7.43-.14,2.41-1.54,4.17-3.9,4.87-.05.02-.1.03-.15.05-.51.14-1.02.22-1.54.27-.73.06-1.46.03-2.2-.05ZM125.64,266.56c.22-4.37.44-8.75.65-13.12l2.54.12.53.71c2.14,2.71,4.36,5.37,6.61,8.03.02.02.04.03.09.07.08-2.85.17-5.68.26-8.52.97.03,1.91.05,2.86.08-.11,4.38-.22,8.76-.32,13.13-.78-.02-1.65-.04-2.41-.07l-.11-.14c-1.47-1.72-2.92-3.45-4.36-5.18-.96-1.15-1.9-2.31-2.85-3.47-.04-.05-.08-.1-.16-.19-.13,2.92-.26,5.78-.38,8.67-.99-.04-1.95-.09-2.94-.14ZM151.64,286.67c-6.17-2.91-12.1-6.18-17.78-9.79,5.66.13,11.62.2,17.89.2s12.07-.07,17.66-.19c-5.68,3.61-11.61,6.88-17.78,9.79ZM142.72,267.15c.08-4.38.15-8.76.23-13.15.09,0,.17,0,.25,0,2.16.04,4.32.05,6.47.07,1.49,0,2.93.25,4.24,1.02,1.7,1,2.55,2.49,2.63,4.44.03.66.02,1.32.02,1.97.02,2.48-1.23,4.28-3.6,5.19-.94.36-1.92.53-2.92.53-2.39,0-4.78-.03-7.17-.07-.04,0-.08,0-.15,0ZM181.37,266.39c-1.12.06-2.18.12-3.28.18-.18-3.55-.36-7.09-.53-10.66-1.59.08-3.14.15-4.7.21-.03-.83-.07-1.64-.1-2.46,4.18-.16,8.36-.39,12.53-.67.05.81.11,1.61.16,2.44-1.54.1-3.09.19-4.68.28.2,3.57.4,7.11.6,10.68ZM173.97,266.76c-.08,0-3.41.15-3.41.15-.38-.78-.95-1.91-1.33-2.7h0c-2.27.08-4.98.13-7.25.17h0c-.32.78-.84,2.01-1.16,2.79h0c-.95,0-2.16.03-3.1.03-.08,0-.16,0-.27,0,.04-.1.06-.16.1-.23,2.04-4.24,4.15-8.75,6.09-13.04h0c.96,0,2.43-.04,3.4-.08,0,0,6.9,12.82,6.94,12.9ZM188.79,265.92c-.04-.55-.08-1.1-.12-1.65-.04-.55-.08-1.1-.11-1.65-.23-3.26-.46-6.53-.69-9.79,1.05-.07,2.09-.15,3.15-.23.19,2.44.38,4.89.56,7.34.05.56.09,1.12.13,1.68.11,1.36.21,2.72.31,4.08-1.08.08-2.15.16-3.24.24ZM218.63,254.92c1.1.95,2.21,1.9,3.32,2.84.03.03.06.04.14.09-.39-2.85-.77-5.65-1.16-8.46.96-.13,1.89-.26,2.83-.4.62,4.33,1.23,8.66,1.85,12.99-.05.02-.11.03-.18.05-.67.09-1.34.19-2.02.27-.1.01-.24-.02-.31-.08-2.15-1.8-4.28-3.62-6.38-5.45-.78-.67-1.55-1.34-2.37-2.06.36,2.91.71,5.76,1.06,8.63-.99.12-1.96.24-2.93.35-.51-4.35-1.01-8.7-1.52-13.05.22-.03.44-.05.66-.08.52-.06,1.04-.13,1.57-.18.12-.01.28.03.37.11,1.68,1.48,3.37,2.96,5.07,4.43ZM205.68,252.23c1.55.8,2.45,2.08,2.74,3.78.08.5.11,1.01.17,1.52,0,0,.2,1.64.12,2.45-.18,1.82-1.22,3.13-2.84,4-1.24.66-2.59.94-3.99,1.01-1.23.07-2.43-.05-3.56-.52-1.82-.75-2.93-2.08-3.21-4-.09-.6-.16-1.21-.21-1.81-.05-.57-.07-1.15-.06-1.72,0-.03,0-.06,0-.08.06-1.87,1.01-3.28,2.62-4.25.8-.48,1.65-.77,2.53-.94.54-.11,1.09-.16,1.65-.2.14,0,.29-.02.43-.02,1.26-.03,2.48.17,3.62.77ZM151.75,239c-23.43,0-43.86-.71-60.91-2.1-10.22-13.7-18.27-28.98-23.78-45.24l42.58.04-20.68,35.82h36.04l87.72-151.94h-36.04l-49.03,84.93-67.83-.06c-.86-6.73-1.31-13.55-1.31-20.44v-73.97h186.22v17.69l-44.31,76.75-26.47-.08-18.04,31.2,26.5.08-20.7,35.85h36.03l46.86-81.16c-1.32,33.17-12.89,64.68-32.21,90.57-14.41,1.16-34.14,2.06-60.65,2.06Z"/>
  <path fill="#FFFFFF" d="M120.78,108.16h-8.03v5.27h-7.29v-9.29h-10.66v4.66h-7.1v4.63h-14.1v22.69l2.3,3.42v5.53h13.64v2.6h2.06v-2.6h14.26v2.6h2.06v-2.6h15.77l-.04-6.36,1.18-3.42v-21.85h-4.06v-5.27ZM114.81,110.23h3.9v3.21h-3.9v-3.21ZM96.86,106.21h6.53v7.22h-6.53v-7.22ZM89.76,110.87h5.04v2.57h-5.04v-2.57ZM89.76,115.5h19.26v1.72h-19.26v-1.72ZM109.02,119.28v10.43h-3.56v-10.43h3.56ZM98.41,121.9v2.15h2.06v-2.15h1.14v-2.62h1.78v10.43h-8.14v-10.43h1.9v2.62h1.25ZM89.76,119.28h3.43v10.43h-3.43v-10.43ZM89.76,131.78h19.26v5.4h-19.26v-5.4ZM75.66,135.5v-3.95h9.12v-2.06h-9.12v-6.42h9.12v-2.06h-9.12v-5.5h12.04v21.67h-10.91l-1.12-1.67ZM121.62,143h-43.67v-3.77h43.67v3.77ZM122.77,115.5l.04,19.44-.8,2.24h-10.93v-21.67h11.69Z"/>
  <path fill="#FFFFFF" d="M120.37,127.54h-5.56v-1.12h5.97v-9.2h-8.03v12.39h7.62v-2.08ZM114.81,119.28h3.9v4.95h-3.9v-4.95Z"/>
  <path fill="#FFFFFF" d="M149.33,85.54h-4.21c-1.13-1.96-3.21-3.29-5.63-3.29-1.25,0-2.41.37-3.4.98-2.33-.8-3.71-1.24-6.4-1.24l-23.15.08v-5.99c0-1.04-.85-1.9-1.9-1.9h-.13c-1.51.23-14.86,2.18-16.75,2.85l-6.92,2.47-.78-1.6c-.57-1.16-1.77-1.91-3.07-1.91h-13.41l3.4,9.19h3.86c-.68,1.03-1.08,2.26-1.08,3.59,0,3.59,2.92,6.52,6.51,6.52,2.05,0,3.87-.97,5.06-2.46h49.65l.03-.85c0-.2.10-1.21,1.18-1.21h1.13c.85,2.62,3.28,4.52,6.17,4.52,2.42,0,4.51-1.34,5.63-3.3.3.5.85.84,1.48.84h10.18v-4.86h-7.46v-2.42ZM111.26,84.02h16.74v2.22h-16.74v-2.22ZM76.27,93.51c-2.62,0-4.75-2.13-4.75-4.75s2.13-4.75,4.75-4.75,4.75,2.13,4.75,4.75-2.13,4.75-4.75,4.75ZM132.97,88.77c0,.08.02.15.03.23h-.81c-1.61,0-2.47,1.04-2.79,2.06h-47.05c.27-.72.44-1.48.44-2.29,0-3.59-2.92-6.51-6.52-6.51-1.37,0-2.64.43-3.70,1.16h-4.36l-2.09-5.66h10.88c.62,0,1.21.36,1.48.93l1.48,3.02,8.41-2.99c1.29-.46,10.43-1.89,16.32-2.74.06.01.10.07.10.13v6.01l-10.34.15c-.88.01-1.75.16-2.59.44l-6.4,2.12.56,1.67,6.4-2.12c.66-.22,1.36-.33,2.06-.34l11.21-.16h3.82s0,4.17,0,4.17h20.28v-4.25c1.97,0,3.15.28,4.77.81-.96,1.14-1.57,2.59-1.57,4.19ZM144.21,88.99h-.05v.48c-.35,2.28-2.3,4.04-4.68,4.04-2.62,0-4.75-2.13-4.75-4.75s2.13-4.75,4.75-4.75,4.75,2.13,4.75,4.75c0,.08-.02.15-.03.23ZM155.02,89.73v1.33l-8.39.02c0-.61-.27-1.16-.70-1.54.03-.25.08-.50.08-.77,0-.50-.07-.99-.18-1.45h1.74v2.41h7.46Z"/>
  <path fill="#FFFFFF" d="M115.73,80.9c0-2.38-1.94-4.31-4.31-4.31s-4.32,1.93-4.32,4.31v.88h8.63v-.88ZM109.03,80.01c.36-.97,1.30-1.67,2.39-1.67s2.03.69,2.39,1.67h-4.78Z"/>
  <path fill="#FFFFFF" d="M76.27,85.21c-1.96,0-3.56,1.59-3.56,3.56s1.6,3.56,3.56,3.56,3.56-1.59,3.56-3.56-1.59-3.56-3.56-3.56ZM76.27,90.56c-.99,0-1.79-.8-1.79-1.79s.8-1.79,1.79-1.79,1.79.8,1.79,1.79-.8,1.79-1.79,1.79Z"/>
  <path fill="#FFFFFF" d="M139.49,85.21c-1.96,0-3.56,1.59-3.56,3.56s1.59,3.56,3.56,3.56,3.56-1.59,3.56-3.56-1.6-3.56-3.56-3.56ZM139.49,90.56c-.99,0-1.79-.8-1.79-1.79s.8-1.79,1.79-1.79,1.79.8,1.79,1.79-.8,1.79-1.79,1.79Z"/>
  <path fill="#FFFFFF" d="M258.85,235.87l8.2-19.91c-10.39,1.97-30.41,4.65-39.91,5.89l20.08,7.53c.1.04.17.11.26.16.02.01.04,0,.05.02.01,0,.02.02.03.03.15.12.27.25.36.42,0,.01.01.02.02.03.09.17.13.37.14.57,0,.01,0,.02,0,.03v26.53c8.56-1.27,16.2-2.93,19.43-3.67l-8.61-16.5c-.18-.34-.2-.75-.05-1.11Z"/>
  <path fill="#FFFFFF" d="M79.91,223.35l-18.94,7.21c3.55.75,9.63,1.83,18.95,2.85v-10.06Z"/>
  <path fill="#FFFFFF" d="M36.49,216l8.19,19.91c.15.36.13.76-.05,1.11l-8.61,16.5c3.23.74,10.86,2.4,19.41,3.67v-26.55c0-.36.17-.69.43-.94h0s.06-.1.11-.13c.08-.06.19-.07.28-.11.02-.01.04-.03.06-.04l20.09-7.53c-9.5-1.24-29.52-3.92-39.91-5.89Z"/>
  <path fill="#FFFFFF" d="M223.3,223.15v10.12c9.39-1.03,15.49-2.16,19.02-2.9l-19.02-7.22Z"/>
  <path fill="#FFFFFF" d="M198.96,254.69c-.13.10-.25.22-.35.35,0,0-.01.01-.02.02-.33.43-.52.96-.55,1.6-.03.63.07,1.21.13,1.89,0,0,.10,1.22.20,1.83.20,1.23,1.04,2.06,2.30,2.29.80.15,1.59.07,2.38-.09,1.58-.32,2.55-1.49,2.45-3.05-.07-1.12-.19-2.24-.35-3.35-.17-1.23-1.04-2.08-2.27-2.30-.97-.17-1.93-.09-2.86.22-.42.14-.78.33-1.07.58Z"/>
  <path fill="#FFFFFF" d="M101.06,253.91c-.89-.33-1.81-.43-2.75-.31-1.29.16-2.13.85-2.44,2.10-.12.49-.18,1-.24,1.5-.04.27-.07.54-.09.81-.03.41-.07,1.04-.09,1.43-.04,1.24.63,2.21,1.80,2.68.75.30,1.54.38,2.35.38,1.58,0,2.8-.94,3.01-2.43.15-1.10.25-2.21.32-3.31.08-1.26-.68-2.42-1.86-2.86Z"/>
  <path fill="#FFFFFF" d="M153.20,262.56c.21-1.20.16-2.42.01-3.63-.08-.70-.42-1.31-1-1.75-.63-.49-1.38-.67-2.16-.69-1.24-.03-2.48-.02-3.72-.03-.06,0-.13,0-.20,0-.03,2.81-.06,5.60-.09,8.43.49,0,.94.01,1.39.01,1.05,0,2.10.03,3.15-.05,1.44-.10,2.37-.92,2.62-2.30Z"/>
  <path fill="#FFFFFF" d="M162.89,262.23c1.78-.04,3.51-.08,5.27-.14-.94-1.94-1.87-3.85-2.81-5.83-.82,2.03-1.64,4-2.46,5.97Z"/>
</svg>
