<?xml version="1.0" encoding="utf-8"?>
<!-- Generator: Adobe Illustrator 16.0.0, SVG Export Plug-In . SVG Version: 6.00 Build 0)  -->
<!DOCTYPE svg PUBLIC "-//W3C//DTD SVG 1.1//EN" "http://www.w3.org/Graphics/SVG/1.1/DTD/svg11.dtd">
<svg version="1.1" id="Layer_1" xmlns="http://www.w3.org/2000/svg" xmlns:xlink="http://www.w3.org/1999/xlink" x="0px" y="0px"
	 width="3479.304px" height="983.803px" viewBox="0 0 3479.304 983.803" enable-background="new 0 0 3479.304 983.803"
	 xml:space="preserve">
<g>
	<defs>
		<rect id="SVGID_1_" x="28.352" y="27.987" width="3405.629" height="923.493"/>
	</defs>
	<clipPath id="SVGID_2_">
		<use xlink:href="#SVGID_1_"  overflow="visible"/>
	</clipPath>
	<rect x="28.352" y="848.777" clip-path="url(#SVGID_2_)" fill="#FFFFFF" width="3376.18" height="102.703"/>
</g>
<path fill="#FFFFFF" d="M1933.981,220.176c-34.1-18.229-247.299-57.423-348.29,17.143c-12.92,9.543-72.93,44.211-73.42,144.044
	c0,0,165.76,0.041,165.76,0.017c6.99-53.143,46.4-60.24,77.81-59.08c42.44,1.571,68.38,20.433,61.03,37.595
	c-6.93,16.15-17.8,25.28-93.45,35.67c-88.17,12.096-236.06,29.165-271.79,136.225c-22.22,66.178-7.46,109.601,11.25,132.53
	c71.63,87.719,209.92,64.055,286.391,27.975c0,0,3.92,25.505,4.35,28.563c3.35,0,200.02,0,208.97,0v-0.16
	c-2.93-1.006-5.67-2.136-8.29-3.389c-19.47-9.345-31.729-33.588-31.22-56.232c0-12.132,2.51-25.85,6.11-42.329
	c0.02-0.014,15.89-84.932,42.449-227.679c0,0,14.4-69.592,14.34-89.695C1985.802,248.28,1953.092,230.788,1933.981,220.176
	 M1663.102,615.456c-33.87-2.064-62.16-35.662-35.1-69.065c21.74-26.819,123.13-38.607,161.28-56.722
	C1773.922,549.438,1766.062,621.744,1663.102,615.456z"/>
<path fill="#FFFFFF" d="M3051.002,220.176c-34.1-18.229-247.3-57.423-348.3,17.143c-12.91,9.543-72.92,44.211-73.42,144.044
	c0,0,165.77,0.041,165.77,0.017c6.99-53.143,46.4-60.24,77.811-59.08c42.439,1.571,68.38,20.433,61.02,37.595
	c-6.92,16.15-17.79,25.28-93.439,35.67c-88.17,12.096-236.07,29.165-271.79,136.225c-22.23,66.178-7.46,109.601,11.25,132.53
	c71.63,87.719,209.92,64.055,286.39,27.975c0,0,3.92,25.505,4.35,28.563c3.351,0,200.011,0,208.971,0v-0.16
	c-2.931-1.006-5.67-2.136-8.29-3.389c-19.47-9.345-31.74-33.588-31.22-56.232c0-12.132,2.51-25.85,6.1-42.329
	c0.029-0.014,15.9-84.932,42.46-227.679c0,0,14.399-69.592,14.33-89.695C3102.822,248.28,3070.112,230.788,3051.002,220.176
	 M2780.122,615.456c-33.88-2.064-62.16-35.662-35.1-69.065c21.739-26.819,123.13-38.607,161.279-56.722
	C2890.942,549.438,2883.082,621.744,2780.122,615.456z"/>
<path fill="#FFFFFF" d="M1527.792,40.905c-0.35,1.902-1.06,5.817-1.36,7.267c-3.31,0-144.94,0-144.94,0l-11.26,22.257
	c0,0,147.47,0,152.16,0c-0.47,2.857-2.01,10.935-2.4,13.051c-3.35,0-156.34,0-156.34,0l-10.51,20.708c0,0,158.37,0,163.08,0
	c-0.65,3.526-3.01,16.753-3.53,19.33c-3.32,0-169.32,0-169.32,0l-8.41,16.898c0,0,169.95,0,174.65,0
	c-0.69,3.843-4.4,24.374-4.94,27.124c-3.34,0-183.45,0-183.45,0l-7.16,14.252c0,0,183.24,0,187.99,0
	c-0.86,4.727-98.11,537.23-98.729,540.553c-3.28,0-193.021,0-197.73,0c0.85-4.802,91.82-507.572,91.82-507.572
	s-255,505.349-256.08,507.572c-2.52,0-281.316,0-284.736,0c-0.528-3.427-111.379-676.783-112.137-681.439
	c4.673,0,213.518,0,216.904,0c0.546,3.387,70.199,467.282,70.199,467.282s233.5-465.097,234.57-467.282
	C1168.642,40.905,1522.992,40.905,1527.792,40.905"/>
<path fill="#FFFFFF" d="M3378.212,726.47c29.91,0,55.77-22.964,55.77-54.818c0-31.85-25.859-54.924-55.77-54.924
	c-31.25,0-57.189,23.074-57.189,54.924C3321.022,703.506,3346.962,726.47,3378.212,726.47 M3332.702,671.651
	c0-26.81,19.439-45.929,45.51-45.929c24.55,0,44.05,19.119,44.05,45.929c0,25.433-19.5,45.892-44.05,45.892
	C3352.142,717.543,3332.702,697.084,3332.702,671.651z M3366.532,675.465h10.33l16.8,28.041h11.78l-18.271-28.041
	c9.101-1.271,16.97-6.423,16.97-17.887c0-12.736-7.869-17.776-23.43-17.776h-24.65v63.704h10.471V675.465z M3366.532,667.771
	v-20.423h12.91c6.42,0,14.22,2.573,14.22,10.229c0,8.922-7.8,10.193-15.45,10.193H3366.532z"/>
<g>
	<defs>
		<rect id="SVGID_3_" x="28.352" y="27.987" width="3405.629" height="923.493"/>
	</defs>
	<clipPath id="SVGID_4_">
		<use xlink:href="#SVGID_3_"  overflow="visible"/>
	</clipPath>
	<path clip-path="url(#SVGID_4_)" fill="#FFFFFF" d="M3245.472,586.069c-0.75,10.881,0.84,18.494,22.33,19.955
		c10.08,0.688,18.2,1.002,27.45,0.688c0.2,0,14.601-0.356,20.46-0.424c-0.96,4.691-23.189,112.912-23.85,116.056
		c-3.221,0-126.181,0-126.181,0c-22.189,0-51.12-1.983-70.59-11.33c-19.47-9.344-31.729-33.587-31.22-56.225
		c0-12.132,2.51-25.856,6.109-42.329c0.03-0.037,93.15-500.727,99.121-532.861c3.319,0,169.31,0,174.039,0
		c-0.91,4.658-27.58,136.83-27.58,136.83s65.86,0,70.341,0c-0.811,4.481-18.8,106.812-19.37,109.99c-3.311,0-71.641,0-71.641,0
		L3245.472,586.069"/>
	<path clip-path="url(#SVGID_4_)" fill="#FFFFFF" d="M2121.772,77.124c42.869-27.737,113.869-49.377,189.789-49.135
		c253.211,5.869,282.301,170.131,280.24,238.869c-4.16,0-190.62,0-194.189,0c-0.311-3.123,8.14-83.673-92.69-82.562
		c-99.2,1.093-108.29,64.296-48.92,77.498c15.72,3.498,49.351,9.173,92.33,16.984c124.08,22.543,171.12,90.16,186.58,122.41
		c57.5,120.004-4.29,282.842-180.95,315.557c-70.41,13.041-149.48,11.309-221.04-5.25c-32.14-7.442-57.28-23.966-80.649-42.416
		c-57.11-45.102-83.2-116.492-82.561-203.191c3.95,0,190.48-0.219,194.32-0.219c0.109,3.333,0.81,24.335,0.81,24.335
		c0.681,20.788,25.4,49.191,61.19,54.982c51.43,8.369,89.899-5.416,102.699-15.721c21.36-17.197,15.03-46.042-5.239-52.396
		c-70.21-22.005-201.05-14.604-274.561-114.226C2008.632,308.02,1997.322,157.649,2121.772,77.124"/>
</g>
</svg>
